<?xml version="1.0" encoding="utf-8"?>
<svg width="349px" height="197px" viewBox="0 0 349 197" version="1.1" xmlns:xlink="http://www.w3.org/1999/xlink" xmlns="http://www.w3.org/2000/svg">
  <defs>
    <path d="M349 0L349 0L349 197L0 197L0 0L349 0Z" id="path_1" />
    <g id="path_2">
      <path d="M12.8 93.6Q9.1 93.6 7.4 92.6Q5.7 91.6 5.7 89.8L5.7 27Q5.7 25.2 7.4 24.2Q9.1 23.2 12.8 23.2L17 23.2Q20 23.2 21.85 24Q23.7 24.8 24.9 26.8L39.5 51.8Q40.3 53.1 41.05 54.6Q41.8 56.1 42.2 57.1Q42.7 56 43.45 54.45Q44.2 52.9 44.8 51.8L59.3 26.9Q60.6 24.8 62.35 24Q64.1 23.2 67.2 23.2L71.5 23.2Q75.3 23.2 76.95 24.2Q78.6 25.2 78.6 27L78.6 89.8Q78.6 91.6 76.95 92.6Q75.3 93.6 71.5 93.6L69.7 93.6Q66 93.6 64.3 92.6Q62.6 91.6 62.6 89.8L62.6 58.9Q62.6 56.8 62.7 54.75Q62.8 52.7 62.9 51.3L62.5 51.2Q62 52.2 61.25 53.4Q60.5 54.6 60 55.6L49.5 73.6Q48.5 75.3 47.05 76Q45.6 76.7 43.2 76.7L41.1 76.7Q38.7 76.7 37.25 76Q35.8 75.3 34.8 73.6L24.3 55.6Q23.8 54.6 23.05 53.4Q22.3 52.2 21.8 51.2L21.4 51.3Q21.5 52.7 21.6 54.75Q21.7 56.8 21.7 58.9L21.7 89.8Q21.7 91.6 20.05 92.6Q18.4 93.6 14.6 93.6L12.8 93.6ZM104.7 94.2Q99.9 94.2 96.45 92.35Q93 90.5 91.25 87Q89.5 83.5 89.5 78.4L89.5 21.8Q89.5 19.9 91.15 18.95Q92.8 18 96.4 18L99.2 18Q102.9 18 104.5 18.95Q106.1 19.9 106.1 21.8L106.1 76.9Q106.1 78.9 106.8 79.8Q107.5 80.7 109.1 80.7Q110.5 80.7 111.45 80.25Q112.4 79.8 113 79.8Q113.7 79.8 114.25 80.9Q114.8 82 115.25 83.6Q115.7 85.2 115.95 86.65Q116.2 88.1 116.2 88.7Q116.2 90.1 114.5 91.4Q112.8 92.7 110.15 93.45Q107.5 94.2 104.7 94.2ZM132.1 94.2Q124.4 94.2 120.75 89.85Q117.1 85.5 117.1 78.7Q117.1 75.8 118.05 72.65Q119 69.5 121.95 66.75Q124.9 64 130.75 62.3Q136.6 60.6 146.3 60.6L146.3 58.2Q146.3 56.4 145.65 55.3Q145 54.2 143.35 53.65Q141.7 53.1 138.7 53.1Q134.9 53.1 131.85 53.8Q128.8 54.5 126.65 55.2Q124.5 55.9 123.4 55.9Q122.6 55.9 121.9 54.8Q121.2 53.7 120.65 52.15Q120.1 50.6 119.85 49.05Q119.6 47.5 119.6 46.7Q119.6 45.4 121.5 44.25Q123.4 43.1 126.45 42.2Q129.5 41.3 133.05 40.8Q136.6 40.3 139.8 40.3Q146.5 40.3 150.95 41.6Q155.4 42.9 158 45.2Q160.6 47.5 161.7 50.7Q162.8 53.9 162.8 57.6L162.8 75.8Q162.8 80.6 163.1 83.35Q163.4 86.1 163.7 87.6Q164 89.1 164 90.2Q164 91.3 162.6 91.9Q161.2 92.5 159.15 92.9Q157.1 93.3 154.95 93.4Q152.8 93.5 151.3 93.5Q149.9 93.5 149.2 92.6Q148.5 91.7 148.2 90.3Q147.9 88.9 147.5 87.6Q146.9 88.4 144.95 90.05Q143 91.7 139.8 92.95Q136.6 94.2 132.1 94.2ZM138.2 81.4Q139.7 81.4 141.15 80.9Q142.6 80.4 143.95 79.5Q145.3 78.6 146.3 77.4L146.3 71Q142.7 71 140.25 71.4Q137.8 71.8 136.2 72.55Q134.6 73.3 133.9 74.45Q133.2 75.6 133.2 77.2Q133.2 79.1 134.4 80.25Q135.6 81.4 138.2 81.4ZM180.4 93.6Q176.8 93.6 175.15 92.65Q173.5 91.7 173.5 89.8L173.5 21.7Q173.5 19.9 175.15 18.9Q176.8 17.9 180.4 17.9L183.2 17.9Q186.8 17.9 188.45 18.9Q190.1 19.9 190.1 21.7L190.1 60.5L190.6 60.5L201.2 43.6Q201.9 42.5 202.8 41.95Q203.7 41.4 205.1 41.15Q206.5 40.9 208.8 40.9L213.1 40.9Q215.8 40.9 217.05 41.25Q218.3 41.6 218.3 42.7Q218.3 43.2 217.95 43.95Q217.6 44.7 216.9 45.8L202.1 68.3L202.1 60.2L219.3 88.9Q219.8 89.8 220.15 90.5Q220.5 91.2 220.5 91.7Q220.5 92.8 219.1 93.2Q217.7 93.6 215.1 93.6L210.8 93.6Q206.9 93.6 205.05 92.85Q203.2 92.1 202 89.9L190.6 70.2L190.1 70.2L190.1 89.8Q190.1 91.7 188.45 92.65Q186.8 93.6 183.2 93.6L180.4 93.6ZM239.3 94.2Q232.4 94.2 228.75 90.5Q225.1 86.8 225.1 79.6L225.1 44.7Q225.1 42.8 226.7 41.85Q228.3 40.9 232 40.9L234.8 40.9Q238.4 40.9 240.05 41.85Q241.7 42.8 241.7 44.7L241.7 75.9Q241.7 78.2 242.8 79.4Q243.9 80.6 246.4 80.6Q247.9 80.6 249.4 80.05Q250.9 79.5 252.3 78.55Q253.7 77.6 254.7 76.3L254.7 44.7Q254.7 42.8 256.35 41.85Q258 40.9 261.6 40.9L264.4 40.9Q268 40.9 269.65 41.85Q271.3 42.8 271.3 44.7L271.3 76Q271.3 80.7 271.55 83.2Q271.8 85.7 272.05 87Q272.3 88.3 272.3 89.4Q272.3 90.7 271 91.5Q269.7 92.3 267.75 92.75Q265.8 93.2 263.8 93.35Q261.8 93.5 260.3 93.5Q258.4 93.5 257.55 92.9Q256.7 92.3 256.3 90.8Q255.9 89.3 255.4 86.6Q253.6 88.8 251.05 90.55Q248.5 92.3 245.55 93.25Q242.6 94.2 239.3 94.2Z" />
    </g>
    <clipPath id="clip_1">
      <use xlink:href="#path_1" clip-rule="evenodd" fill-rule="evenodd" />
    </clipPath>
  </defs>
  <g id="Frame" clip-path="url(#clip_1)">
    <path d="M349 0L349 0L349 197L0 197L0 0L349 0Z" id="Frame" fill="none" stroke="none" />
    <g id="Group" transform="translate(8 -1)">
      <path d="M104.235 84L96 56L226.5 56L226.5 88.5313L241 84L241 107L233.5 141L289 141L281.5 165L241 158.5L180.5 165L121 141L119.506 135.921L95.5 147.5L74 127L74 94L95.5 84L104.235 84Z" id="Vector-Union" fill="#319469" fill-rule="evenodd" stroke="none" />
      <g id="Text">
        <g id="Mlaku" fill="#FFFFFF">
          <use xlink:href="#path_2" fill="none" stroke="#319469" stroke-width="16" />
        </g>
      </g>
      <g id="Text-2" transform="translate(57 84)">
        <g id="Mlaku" fill="#FFFFFF">
          <use xlink:href="#path_2" fill="none" stroke="#319469" stroke-width="16" />
        </g>
      </g>
    </g>
  </g>
</svg>